<svg xmlns="http://www.w3.org/2000/svg" viewBox="0 0 64 64" fill="none">
  <rect width="64" height="64" rx="8" fill="#6366F1"/>
  <g transform="translate(14, 18) scale(2.5)">
    <path fill="white" d="M10,13.239c-1.342,0-2.685-0.511-3.707-1.532c-1.266-1.265-3.323-1.264-4.586,0
      c-0.391,0.391-1.023,0.391-1.414,0s-0.391-1.023,0-1.414c2.043-2.043,5.369-2.043,7.414,0c1.265,1.264,3.322,1.263,4.586,0
      c0.391-0.391,1.023-0.391,1.414,0c0.391,0.391,0.391,1.023,0,1.414C12.686,12.728,11.343,13.239,10,13.239z"/>
    <path fill="white" d="M10,9.239c-1.342,0-2.685-0.511-3.707-1.532c-1.266-1.265-3.323-1.264-4.586,0
      c-0.391,0.391-1.023,0.391-1.414,0c-0.391-0.391-0.391-1.023,0-1.414c2.043-2.043,5.369-2.043,7.414,0
      c1.265,1.264,3.322,1.263,4.586,0c0.391-0.391,1.023-0.391,1.414,0s0.391,1.023,0,1.414C12.686,8.728,11.343,9.239,10,9.239z"/>
    <path fill="white" d="M10,5.239c-1.342,0-2.685-0.511-3.707-1.532c-1.266-1.265-3.323-1.264-4.586,0
      c-0.391,0.391-1.023,0.391-1.414,0s-0.391-1.023,0-1.414c2.043-2.042,5.369-2.044,7.414,0c1.265,1.264,3.322,1.263,4.586,0
      c0.391-0.391,1.023-0.391,1.414,0s0.391,1.023,0,1.414C12.686,4.728,11.343,5.239,10,5.239z"/>
  </g>
</svg>
